<svg xmlns="http://www.w3.org/2000/svg" width="1200" height="660" viewBox="0 0 1200 660">
  <style>
    @keyframes blink { 0%,100%{opacity:1} 50%{opacity:0} }
    @keyframes pulse { 0%,100%{opacity:0.4} 50%{opacity:1} }
    @keyframes scan { 0%{transform:translateY(0)} 100%{transform:translateY(660px)} }
    @keyframes glow { 0%,100%{filter:drop-shadow(0 0 3px #00ff41)} 50%{filter:drop-shadow(0 0 12px #00ff41)} }
    @keyframes flicker { 0%,100%{opacity:1} 92%{opacity:1} 93%{opacity:0.2} 94%{opacity:0.7} 96%{opacity:0.2} 97%{opacity:1} }
    .cursor { animation: blink 1s step-end infinite }
    .pulse { animation: pulse 2s ease-in-out infinite }
    .glow { animation: glow 2s ease-in-out infinite }
    .flicker { animation: flicker 4s infinite }
    .scan { animation: scan 4s linear infinite }
  </style>

  <rect width="1200" height="660" fill="#0c100c"/>
  <rect x="1" y="1" width="1198" height="658" fill="none" stroke="#00ff4111" stroke-width="1"/>

  <rect x="0" y="0" width="1200" height="34" fill="#0d140d"/>
  <rect x="0" y="33" width="1200" height="1" fill="#00ff4122"/>
  <circle cx="20" cy="17" r="5" fill="#ff4444"/>
  <circle cx="36" cy="17" r="5" fill="#ffbd2e"/>
  <circle cx="52" cy="17" r="5" fill="#00ff41"/>
  <text x="100" y="22" fill="#00ff41" font-size="12" font-family="monospace" font-weight="bold">aBadRoy@red-team:~</text>
  <text x="410" y="22" fill="#00ff4166" font-size="11" font-family="monospace">/dev/tty1 — sliver:4444</text>
  <text x="880" y="22" fill="#00ff4166" font-size="11" font-family="monospace">OPSEC:</text>
  <text x="935" y="22" fill="#00ff41" font-size="11" font-family="monospace" font-weight="bold" class="pulse">ENABLED</text>
  <circle cx="1010" cy="17" r="3" fill="#00ff41" class="pulse"/>

  <rect x="15" y="50" width="310" height="195" fill="#0d140d" stroke="#00ff4115" stroke-width="1" rx="2"/>
  <rect x="15" y="50" width="310" height="22" fill="#00ff4108" rx="2"/>
  <rect x="15" y="70" width="310" height="2" fill="none"/>
  <text x="25" y="65" fill="#00ff41" font-size="10" font-family="monospace" font-weight="bold">SYSTEM INFO</text>

  <text x="25" y="94" fill="#00ff4199" font-size="11" font-family="monospace">OPERATOR</text>
  <text x="125" y="94" fill="#ffffff" font-size="11" font-family="monospace">aBadRoy</text>

  <text x="25" y="116" fill="#00ff4199" font-size="11" font-family="monospace">ROLE</text>
  <text x="125" y="116" fill="#ffffff" font-size="11" font-family="monospace">Red Team Operator</text>

  <text x="25" y="138" fill="#00ff4199" font-size="11" font-family="monospace">DIVISION</text>
  <text x="125" y="138" fill="#ffffff" font-size="11" font-family="monospace">Offensive Security</text>

  <text x="25" y="160" fill="#00ff4199" font-size="11" font-family="monospace">STATUS</text>
  <text x="125" y="160" fill="#00ff41" font-size="11" font-family="monospace" font-weight="bold" class="pulse">ACTIVE</text>

  <text x="25" y="182" fill="#00ff4199" font-size="11" font-family="monospace">METHOD</text>
  <text x="125" y="182" fill="#ffffff" font-size="11" font-family="monospace">MITRE ATTACK v14</text>

  <text x="25" y="204" fill="#00ff4199" font-size="11" font-family="monospace">UPTIME</text>
  <text x="125" y="204" fill="#ffffff" font-size="11" font-family="monospace">7,502 hours</text>

  <text x="25" y="226" fill="#00ff4199" font-size="11" font-family="monospace">SECTOR</text>
  <text x="125" y="226" fill="#ffffff" font-size="11" font-family="monospace">VAPT / Red Teaming</text>

  <rect x="345" y="50" width="510" height="195" fill="#0d140d" stroke="#00ff4115" stroke-width="1" rx="2"/>
  <rect x="345" y="50" width="510" height="22" fill="#00ff4108" rx="2"/>
  <text x="355" y="65" fill="#00ff41" font-size="10" font-family="monospace" font-weight="bold">OPERATOR CREDENTIALS</text>

  <text x="365" y="115" fill="#00ff41" font-size="44" font-family="monospace" font-weight="bold" class="glow">aBadRoy</text>
  <text x="365" y="150" fill="#ffffff" font-size="15" font-family="monospace" font-weight="bold">RED TEAM OPERATOR</text>
  <text x="365" y="175" fill="#00ff41cc" font-size="12" font-family="monospace">Offensive Security Division</text>

  <line x1="365" y1="195" x2="830" y2="195" stroke="#00ff4122" stroke-width="1"/>

  <text x="365" y="215" fill="#00ff4199" font-size="11" font-family="monospace" font-style="italic">"Access is the only law.</text>
  <text x="365" y="233" fill="#00ff4199" font-size="11" font-family="monospace" font-style="italic">Everything else is just a firewall."</text>

  <rect x="875" y="50" width="310" height="195" fill="#0d140d" stroke="#00ff4115" stroke-width="1" rx="2"/>
  <rect x="875" y="50" width="310" height="22" fill="#00ff4108" rx="2"/>
  <text x="885" y="65" fill="#00ff41" font-size="10" font-family="monospace" font-weight="bold">NETWORK</text>

  <text x="885" y="94" fill="#00ff4199" font-size="11" font-family="monospace">C2</text>
  <text x="960" y="94" fill="#ffffff" font-size="11" font-family="monospace">sliver:4444</text>
  <text x="1090" y="94" fill="#00ff41" font-size="10" font-family="monospace" font-weight="bold">ACTIVE</text>
  <circle cx="1080" cy="90" r="3" fill="#00ff41" class="pulse"/>

  <text x="885" y="116" fill="#00ff4199" font-size="11" font-family="monospace">BEACONS</text>
  <text x="960" y="116" fill="#ffffff" font-size="11" font-family="monospace">9 nodes online</text>
  <text x="1090" y="116" fill="#00ff41" font-size="10" font-family="monospace" font-weight="bold" class="pulse">100%</text>

  <text x="885" y="138" fill="#00ff4199" font-size="11" font-family="monospace">PROXY</text>
  <text x="960" y="138" fill="#ffffff" font-size="11" font-family="monospace">tor (3 hops)</text>

  <text x="885" y="160" fill="#00ff4199" font-size="11" font-family="monospace">ENC</text>
  <text x="960" y="160" fill="#ffffff" font-size="11" font-family="monospace">AES-256-GCM</text>

  <text x="885" y="182" fill="#00ff4199" font-size="11" font-family="monospace">TOOLS</text>
  <text x="960" y="182" fill="#ffffff" font-size="11" font-family="monospace">50+ in active rotation</text>

  <text x="885" y="204" fill="#00ff4199" font-size="11" font-family="monospace">PAYLOADS</text>
  <text x="960" y="204" fill="#ffffff" font-size="11" font-family="monospace">1,247 warheads cached</text>

  <text x="885" y="226" fill="#00ff4199" font-size="11" font-family="monospace">OPSEC</text>
  <text x="960" y="226" fill="#00ff41" font-size="11" font-family="monospace" font-weight="bold">ENABLED</text>
  <circle cx="1080" cy="222" r="3" fill="#00ff41" class="pulse"/>

  <rect x="0" y="260" width="1200" height="1" fill="#00ff4115"/>
  <rect x="0" y="260" width="1200" height="40" fill="#0d140d"/>

  <text x="75" y="285" text-anchor="middle" fill="#00ff4199" font-size="9" font-family="monospace" font-weight="bold">REPOS</text>
  <text x="75" y="295" text-anchor="middle" fill="#00ff41" font-size="11" font-family="monospace" font-weight="bold">10</text>

  <line x1="140" y1="265" x2="140" y2="295" stroke="#00ff4115" stroke-width="1"/>
  <text x="190" y="285" text-anchor="middle" fill="#00ff4199" font-size="9" font-family="monospace" font-weight="bold">TOOLS</text>
  <text x="190" y="295" text-anchor="middle" fill="#00ff41" font-size="11" font-family="monospace" font-weight="bold">9</text>

  <line x1="260" y1="265" x2="260" y2="295" stroke="#00ff4115" stroke-width="1"/>
  <text x="320" y="285" text-anchor="middle" fill="#00ff4199" font-size="9" font-family="monospace" font-weight="bold">PAYLOADS</text>
  <text x="320" y="295" text-anchor="middle" fill="#ffffff" font-size="11" font-family="monospace" font-weight="bold">6,432</text>

  <line x1="400" y1="265" x2="400" y2="295" stroke="#00ff4115" stroke-width="1"/>
  <text x="480" y="285" text-anchor="middle" fill="#00ff4199" font-size="9" font-family="monospace" font-weight="bold">VULNS</text>
  <text x="480" y="295" text-anchor="middle" fill="#ff0044" font-size="11" font-family="monospace" font-weight="bold">100+</text>

  <line x1="560" y1="265" x2="560" y2="295" stroke="#00ff4115" stroke-width="1"/>
  <text x="640" y="285" text-anchor="middle" fill="#00ff4199" font-size="9" font-family="monospace" font-weight="bold">CTFS</text>
  <text x="640" y="295" text-anchor="middle" fill="#00ff41" font-size="11" font-family="monospace" font-weight="bold">15</text>

  <line x1="720" y1="265" x2="720" y2="295" stroke="#00ff4115" stroke-width="1"/>
  <text x="800" y="285" text-anchor="middle" fill="#00ff4199" font-size="9" font-family="monospace" font-weight="bold">C2 FRAMEWORKS</text>
  <text x="800" y="295" text-anchor="middle" fill="#ffffff" font-size="11" font-family="monospace" font-weight="bold">6</text>

  <line x1="880" y1="265" x2="880" y2="295" stroke="#00ff4115" stroke-width="1"/>
  <text x="960" y="285" text-anchor="middle" fill="#00ff4199" font-size="9" font-family="monospace" font-weight="bold">EXPLOIT CATS</text>
  <text x="960" y="295" text-anchor="middle" fill="#00ff41" font-size="11" font-family="monospace" font-weight="bold">12</text>

  <line x1="1040" y1="265" x2="1040" y2="295" stroke="#00ff4115" stroke-width="1"/>
  <text x="1120" y="285" text-anchor="middle" fill="#00ff4199" font-size="9" font-family="monospace" font-weight="bold">UPTIME</text>
  <text x="1120" y="295" text-anchor="middle" fill="#00ff41" font-size="11" font-family="monospace" font-weight="bold">7.5k hrs</text>

  <rect x="0" y="301" width="1200" height="1" fill="#00ff4115"/>

  <rect x="15" y="315" width="870" height="265" fill="#0d140d" stroke="#00ff4115" stroke-width="1" rx="2"/>
  <rect x="15" y="315" width="870" height="22" fill="#00ff4108" rx="2"/>
  <text x="25" y="331" fill="#00ff41" font-size="10" font-family="monospace" font-weight="bold">DEPLOY LOG</text>

  <text x="25" y="362" fill="#00ff41" font-size="13" font-family="monospace" font-weight="bold">$</text>
  <text x="40" y="362" fill="#ffffff" font-size="13" font-family="monospace">./deploy.sh --profile=red-team --target=enterprise</text>

  <text x="25" y="390" fill="#00ff4166" font-size="12" font-family="monospace">[2026-07-04 03:42:17] Initializing engagement...</text>

  <text x="25" y="416" fill="#00ff41" font-size="12" font-family="monospace">[ OK ] C2 handshake established — sliver:4444 (32ms)</text>
  <text x="25" y="438" fill="#00ff41" font-size="12" font-family="monospace">[ OK ] Beacon deployment — 9/9 nodes active</text>
  <text x="25" y="460" fill="#00ff41" font-size="12" font-family="monospace">[ OK ] Payload synchronization — 1,247 warheads</text>
  <text x="25" y="482" fill="#00ff41" font-size="12" font-family="monospace">[ OK ] OPSEC verification — ALL CHANNELS CLEAN</text>
  <text x="25" y="504" fill="#ffbd2e" font-size="12" font-family="monospace">[ !! ] Port scan — 3 exposed services on target</text>
  <text x="25" y="526" fill="#ff00ff" font-size="12" font-family="monospace">[ !! ] NoSQLHunter scan — queued for 04:00</text>

  <text x="25" y="558" fill="#00ff41" font-size="13" font-family="monospace" font-weight="bold">$</text>
  <text x="40" y="558" fill="#00ff41cc" font-size="13" font-family="monospace">cat /etc/motd | grep motto</text>
  <rect x="300" y="548" width="8" height="15" fill="#00ff41" class="cursor"/>

  <rect x="910" y="315" width="275" height="265" fill="#0d140d" stroke="#00ff4115" stroke-width="1" rx="2"/>
  <rect x="910" y="315" width="275" height="22" fill="#00ff4108" rx="2"/>
  <text x="920" y="331" fill="#00ff41" font-size="10" font-family="monospace" font-weight="bold">TOPO</text>

  <circle cx="980" cy="385" r="5" fill="#00ff41" class="pulse"/>
  <circle cx="1090" cy="370" r="4" fill="#00ffff"/>
  <circle cx="1125" cy="425" r="4" fill="#ff00ff"/>
  <circle cx="1030" cy="435" r="4" fill="#ff0044" class="pulse"/>

  <line x1="980" y1="385" x2="1090" y2="370" stroke="#00ffff55" stroke-width="1.5"/>
  <line x1="1090" y1="370" x2="1125" y2="425" stroke="#ff00ff55" stroke-width="1.5"/>
  <line x1="1125" y1="425" x2="1030" y2="435" stroke="#ff004455" stroke-width="1.5"/>
  <line x1="1030" y1="435" x2="980" y2="385" stroke="#00ff4155" stroke-width="1.5"/>
  <line x1="980" y1="385" x2="1125" y2="425" stroke="#00ff4120" stroke-width="0.5"/>
  <line x1="1090" y1="370" x2="1030" y2="435" stroke="#00ff4120" stroke-width="0.5"/>

  <text x="958" y="368" fill="#00ff4199" font-size="8" font-family="monospace">C2</text>
  <text x="1075" y="362" fill="#00ffff99" font-size="8" font-family="monospace">IMPLANT</text>
  <text x="1110" y="442" fill="#ff00ff99" font-size="8" font-family="monospace">PROXY</text>
  <text x="1020" y="450" fill="#ff004499" font-size="8" font-family="monospace">EXFIL</text>

  <rect x="920" y="470" width="255" height="20" fill="none" stroke="#00ff4115" stroke-width="1" rx="2"/>
  <text x="928" y="484" fill="#00ff4199" font-size="9" font-family="monospace">BANDWIDTH</text>
  <rect x="1000" y="474" width="80" height="12" fill="#00ff4111" rx="2"/>
  <rect x="1000" y="474" width="65" height="12" fill="#00ffff" rx="2"/>
  <text x="1090" y="484" fill="#00ffff" font-size="9" font-family="monospace" font-weight="bold">1.2 Gbps</text>

  <rect x="920" y="498" width="255" height="20" fill="none" stroke="#00ff4115" stroke-width="1" rx="2"/>
  <text x="928" y="512" fill="#00ff4199" font-size="9" font-family="monospace">COVERAGE</text>
  <rect x="1000" y="502" width="80" height="12" fill="#00ff4111" rx="2"/>
  <rect x="1000" y="502" width="55" height="12" fill="#ff00ff" rx="2"/>
  <text x="1090" y="512" fill="#ff00ff" font-size="9" font-family="monospace" font-weight="bold">68%</text>

  <rect x="920" y="526" width="255" height="20" fill="none" stroke="#00ff4115" stroke-width="1" rx="2"/>
  <text x="928" y="540" fill="#00ff4199" font-size="9" font-family="monospace">BEACON HEALTH</text>
  <rect x="1028" y="530" width="52" height="12" fill="#00ff4111" rx="2"/>
  <rect x="1028" y="530" width="48" height="12" fill="#00ff41" rx="2"/>
  <text x="1090" y="540" fill="#00ff41" font-size="9" font-family="monospace" font-weight="bold">9/9</text>

  <rect x="920" y="554" width="255" height="20" fill="none" stroke="#00ff4115" stroke-width="1" rx="2"/>
  <text x="928" y="568" fill="#00ff4199" font-size="9" font-family="monospace">LATENCY</text>
  <rect x="1000" y="558" width="80" height="12" fill="#00ff4111" rx="2"/>
  <rect x="1000" y="558" width="72" height="12" fill="#ffbd2e" rx="2"/>
  <text x="1090" y="568" fill="#ffbd2e" font-size="9" font-family="monospace" font-weight="bold">32 ms</text>

  <rect x="0" y="300" width="1200" height="2" fill="#00ff41" class="scan" opacity="0.04"/>

  <rect x="15" y="593" width="1170" height="55" fill="#0d140d" stroke="#00ff4115" stroke-width="1" rx="2"/>
  <rect x="15" y="593" width="1170" height="22" fill="#00ff4108" rx="2"/>
  <text x="25" y="609" fill="#00ff41" font-size="10" font-family="monospace" font-weight="bold">MOTD</text>

  <text x="30" y="635" fill="#ff4444" font-size="13" font-family="monospace" font-weight="bold">"It's not about breaking in. It's about proving</text>
  <text x="30" y="635" fill="#ff444466" font-size="13" font-family="monospace" font-weight="bold" class="flicker">"It's not about breaking in. It's about proving</text>
  <text x="520" y="635" fill="#ff4444" font-size="13" font-family="monospace" font-weight="bold">the walls aren't as strong as they think."</text>
</svg>
